%TF.GenerationSoftware,KiCad,Pcbnew,(6.0.7)*%
%TF.CreationDate,2022-08-30T17:39:49-06:00*%
%TF.ProjectId,malenki-1616-3A,6d616c65-6e6b-4692-9d31-3631362d3341,rev?*%
%TF.SameCoordinates,Original*%
%TF.FileFunction,Drillmap*%
%TF.FilePolarity,Positive*%
%FSLAX45Y45*%
G04 Gerber Fmt 4.5, Leading zero omitted, Abs format (unit mm)*
G04 Created by KiCad (PCBNEW (6.0.7)) date 2022-08-30 17:39:49*
%MOMM*%
%LPD*%
G01*
G04 APERTURE LIST*
%ADD10C,0.050000*%
%ADD11C,0.200000*%
%ADD12C,0.040000*%
%ADD13C,0.120000*%
%ADD14C,0.070000*%
G04 APERTURE END LIST*
D10*
X15540000Y-6172200D02*
X13639800Y-6172200D01*
X15540000Y-8440000D02*
X15540000Y-6172200D01*
X13639518Y-8439301D02*
G75*
G03*
X13780000Y-8580484I140482J-699D01*
G01*
X13780000Y-8580484D02*
X15398817Y-8580482D01*
X15398817Y-8580478D02*
G75*
G03*
X15540000Y-8440000I703J140478D01*
G01*
X13639800Y-6172200D02*
X13639518Y-8439301D01*
D11*
D12*
X13842150Y-6700000D02*
X13882150Y-6740000D01*
X13882150Y-6700000D02*
X13842150Y-6740000D01*
X13960532Y-6389150D02*
X14000532Y-6429150D01*
X14000532Y-6389150D02*
X13960532Y-6429150D01*
X13979811Y-6690189D02*
X14019811Y-6730189D01*
X14019811Y-6690189D02*
X13979811Y-6730189D01*
X14061486Y-6571436D02*
X14101486Y-6611436D01*
X14101486Y-6571436D02*
X14061486Y-6611436D01*
X14120000Y-6800000D02*
X14160000Y-6840000D01*
X14160000Y-6800000D02*
X14120000Y-6840000D01*
X14150188Y-6633658D02*
X14190188Y-6673658D01*
X14190188Y-6633658D02*
X14150188Y-6673658D01*
X14159550Y-7758750D02*
X14199550Y-7798750D01*
X14199550Y-7758750D02*
X14159550Y-7798750D01*
X14233826Y-7247249D02*
X14273826Y-7287249D01*
X14273826Y-7247249D02*
X14233826Y-7287249D01*
X14235095Y-6423586D02*
X14275095Y-6463586D01*
X14275095Y-6423586D02*
X14235095Y-6463586D01*
X14240000Y-7050000D02*
X14280000Y-7090000D01*
X14280000Y-7050000D02*
X14240000Y-7090000D01*
X14270000Y-7870000D02*
X14310000Y-7910000D01*
X14310000Y-7870000D02*
X14270000Y-7910000D01*
X14290000Y-7520000D02*
X14330000Y-7560000D01*
X14330000Y-7520000D02*
X14290000Y-7560000D01*
X14297250Y-7170000D02*
X14337250Y-7210000D01*
X14337250Y-7170000D02*
X14297250Y-7210000D01*
X14330000Y-7350000D02*
X14370000Y-7390000D01*
X14370000Y-7350000D02*
X14330000Y-7390000D01*
X14395000Y-7870000D02*
X14435000Y-7910000D01*
X14435000Y-7870000D02*
X14395000Y-7910000D01*
X14407200Y-6612800D02*
X14447200Y-6652800D01*
X14447200Y-6612800D02*
X14407200Y-6652800D01*
X14517150Y-7190000D02*
X14557150Y-7230000D01*
X14557150Y-7190000D02*
X14517150Y-7230000D01*
X14518962Y-6960661D02*
X14558962Y-7000661D01*
X14558962Y-6960661D02*
X14518962Y-7000661D01*
X14530000Y-7060000D02*
X14570000Y-7100000D01*
X14570000Y-7060000D02*
X14530000Y-7100000D01*
X14565267Y-6798424D02*
X14605267Y-6838424D01*
X14605267Y-6798424D02*
X14565267Y-6838424D01*
X14572300Y-7758750D02*
X14612300Y-7798750D01*
X14612300Y-7758750D02*
X14572300Y-7798750D01*
X14610000Y-6339950D02*
X14650000Y-6379950D01*
X14650000Y-6339950D02*
X14610000Y-6379950D01*
X14640000Y-7520000D02*
X14680000Y-7560000D01*
X14680000Y-7520000D02*
X14640000Y-7560000D01*
X14660000Y-6460000D02*
X14700000Y-6500000D01*
X14700000Y-6460000D02*
X14660000Y-6500000D01*
X14660000Y-7259950D02*
X14700000Y-7299950D01*
X14700000Y-7259950D02*
X14660000Y-7299950D01*
X14660098Y-6830000D02*
X14700098Y-6870000D01*
X14700098Y-6830000D02*
X14660098Y-6870000D01*
X14691250Y-7878750D02*
X14731250Y-7918750D01*
X14731250Y-7878750D02*
X14691250Y-7918750D01*
X14770000Y-6460000D02*
X14810000Y-6500000D01*
X14810000Y-6460000D02*
X14770000Y-6500000D01*
X14790000Y-7260000D02*
X14830000Y-7300000D01*
X14830000Y-7260000D02*
X14790000Y-7300000D01*
X14820000Y-7880000D02*
X14860000Y-7920000D01*
X14860000Y-7880000D02*
X14820000Y-7920000D01*
X14840000Y-6750000D02*
X14880000Y-6790000D01*
X14880000Y-6750000D02*
X14840000Y-6790000D01*
X14865859Y-7130549D02*
X14905859Y-7170549D01*
X14905859Y-7130549D02*
X14865859Y-7170549D01*
X14920000Y-6530000D02*
X14960000Y-6570000D01*
X14960000Y-6530000D02*
X14920000Y-6570000D01*
X14920000Y-6650000D02*
X14960000Y-6690000D01*
X14960000Y-6650000D02*
X14920000Y-6690000D01*
X14930000Y-6330000D02*
X14970000Y-6370000D01*
X14970000Y-6330000D02*
X14930000Y-6370000D01*
X14965000Y-7865000D02*
X15005000Y-7905000D01*
X15005000Y-7865000D02*
X14965000Y-7905000D01*
X15050000Y-6820000D02*
X15090000Y-6860000D01*
X15090000Y-6820000D02*
X15050000Y-6860000D01*
X15095000Y-7495000D02*
X15135000Y-7535000D01*
X15135000Y-7495000D02*
X15095000Y-7535000D01*
X15135000Y-7760000D02*
X15175000Y-7800000D01*
X15175000Y-7760000D02*
X15135000Y-7800000D01*
X15140000Y-6230000D02*
X15180000Y-6270000D01*
X15180000Y-6230000D02*
X15140000Y-6270000D01*
X15295000Y-7620000D02*
X15335000Y-7660000D01*
X15335000Y-7620000D02*
X15295000Y-7660000D01*
X15360000Y-6860000D02*
X15400000Y-6900000D01*
X15400000Y-6860000D02*
X15360000Y-6900000D01*
X15370000Y-7915000D02*
X15410000Y-7955000D01*
X15410000Y-7915000D02*
X15370000Y-7955000D01*
D13*
X13903000Y-8128000D02*
G75*
G03*
X13903000Y-8128000I-60000J0D01*
G01*
X13903000Y-8382000D02*
G75*
G03*
X13903000Y-8382000I-60000J0D01*
G01*
X14284000Y-8128000D02*
G75*
G03*
X14284000Y-8128000I-60000J0D01*
G01*
X14284000Y-8382000D02*
G75*
G03*
X14284000Y-8382000I-60000J0D01*
G01*
X14665000Y-8128000D02*
G75*
G03*
X14665000Y-8128000I-60000J0D01*
G01*
X14665000Y-8382000D02*
G75*
G03*
X14665000Y-8382000I-60000J0D01*
G01*
X15046000Y-8128000D02*
G75*
G03*
X15046000Y-8128000I-60000J0D01*
G01*
X15046000Y-8382000D02*
G75*
G03*
X15046000Y-8382000I-60000J0D01*
G01*
D14*
X15259500Y-7961000D02*
X15259500Y-8031000D01*
X15224500Y-7996000D02*
X15294500Y-7996000D01*
X15259500Y-8088000D02*
X15259500Y-8158000D01*
X15224500Y-8123000D02*
X15294500Y-8123000D01*
X15259500Y-8215000D02*
X15259500Y-8285000D01*
X15224500Y-8250000D02*
X15294500Y-8250000D01*
X15259500Y-8342000D02*
X15259500Y-8412000D01*
X15224500Y-8377000D02*
X15294500Y-8377000D01*
X15259500Y-8469000D02*
X15259500Y-8539000D01*
X15224500Y-8504000D02*
X15294500Y-8504000D01*
D11*
X13894635Y-8893460D02*
X13894635Y-8693460D01*
X13942254Y-8693460D01*
X13970826Y-8702984D01*
X13989874Y-8722031D01*
X13999397Y-8741079D01*
X14008921Y-8779174D01*
X14008921Y-8807745D01*
X13999397Y-8845841D01*
X13989874Y-8864888D01*
X13970826Y-8883936D01*
X13942254Y-8893460D01*
X13894635Y-8893460D01*
X14094635Y-8893460D02*
X14094635Y-8760126D01*
X14094635Y-8798222D02*
X14104159Y-8779174D01*
X14113683Y-8769650D01*
X14132731Y-8760126D01*
X14151778Y-8760126D01*
X14218445Y-8893460D02*
X14218445Y-8760126D01*
X14218445Y-8693460D02*
X14208921Y-8702984D01*
X14218445Y-8712507D01*
X14227969Y-8702984D01*
X14218445Y-8693460D01*
X14218445Y-8712507D01*
X14342254Y-8893460D02*
X14323207Y-8883936D01*
X14313683Y-8864888D01*
X14313683Y-8693460D01*
X14447016Y-8893460D02*
X14427969Y-8883936D01*
X14418445Y-8864888D01*
X14418445Y-8693460D01*
X14675588Y-8893460D02*
X14675588Y-8693460D01*
X14742254Y-8836317D01*
X14808921Y-8693460D01*
X14808921Y-8893460D01*
X14989874Y-8893460D02*
X14989874Y-8788698D01*
X14980350Y-8769650D01*
X14961302Y-8760126D01*
X14923207Y-8760126D01*
X14904159Y-8769650D01*
X14989874Y-8883936D02*
X14970826Y-8893460D01*
X14923207Y-8893460D01*
X14904159Y-8883936D01*
X14894635Y-8864888D01*
X14894635Y-8845841D01*
X14904159Y-8826793D01*
X14923207Y-8817269D01*
X14970826Y-8817269D01*
X14989874Y-8807745D01*
X15085112Y-8760126D02*
X15085112Y-8960126D01*
X15085112Y-8769650D02*
X15104159Y-8760126D01*
X15142254Y-8760126D01*
X15161302Y-8769650D01*
X15170826Y-8779174D01*
X15180350Y-8798222D01*
X15180350Y-8855364D01*
X15170826Y-8874412D01*
X15161302Y-8883936D01*
X15142254Y-8893460D01*
X15104159Y-8893460D01*
X15085112Y-8883936D01*
X15266064Y-8874412D02*
X15275588Y-8883936D01*
X15266064Y-8893460D01*
X15256540Y-8883936D01*
X15266064Y-8874412D01*
X15266064Y-8893460D01*
X15266064Y-8769650D02*
X15275588Y-8779174D01*
X15266064Y-8788698D01*
X15256540Y-8779174D01*
X15266064Y-8769650D01*
X15266064Y-8788698D01*
D12*
X13597016Y-9202984D02*
X13637016Y-9242984D01*
X13637016Y-9202984D02*
X13597016Y-9242984D01*
D11*
X13932731Y-9113460D02*
X13951778Y-9113460D01*
X13970826Y-9122984D01*
X13980350Y-9132507D01*
X13989874Y-9151555D01*
X13999397Y-9189650D01*
X13999397Y-9237269D01*
X13989874Y-9275364D01*
X13980350Y-9294412D01*
X13970826Y-9303936D01*
X13951778Y-9313460D01*
X13932731Y-9313460D01*
X13913683Y-9303936D01*
X13904159Y-9294412D01*
X13894635Y-9275364D01*
X13885112Y-9237269D01*
X13885112Y-9189650D01*
X13894635Y-9151555D01*
X13904159Y-9132507D01*
X13913683Y-9122984D01*
X13932731Y-9113460D01*
X14085112Y-9294412D02*
X14094635Y-9303936D01*
X14085112Y-9313460D01*
X14075588Y-9303936D01*
X14085112Y-9294412D01*
X14085112Y-9313460D01*
X14266064Y-9180126D02*
X14266064Y-9313460D01*
X14218445Y-9103936D02*
X14170826Y-9246793D01*
X14294635Y-9246793D01*
X14408921Y-9113460D02*
X14427969Y-9113460D01*
X14447016Y-9122984D01*
X14456540Y-9132507D01*
X14466064Y-9151555D01*
X14475588Y-9189650D01*
X14475588Y-9237269D01*
X14466064Y-9275364D01*
X14456540Y-9294412D01*
X14447016Y-9303936D01*
X14427969Y-9313460D01*
X14408921Y-9313460D01*
X14389874Y-9303936D01*
X14380350Y-9294412D01*
X14370826Y-9275364D01*
X14361302Y-9237269D01*
X14361302Y-9189650D01*
X14370826Y-9151555D01*
X14380350Y-9132507D01*
X14389874Y-9122984D01*
X14408921Y-9113460D01*
X14599397Y-9113460D02*
X14618445Y-9113460D01*
X14637493Y-9122984D01*
X14647016Y-9132507D01*
X14656540Y-9151555D01*
X14666064Y-9189650D01*
X14666064Y-9237269D01*
X14656540Y-9275364D01*
X14647016Y-9294412D01*
X14637493Y-9303936D01*
X14618445Y-9313460D01*
X14599397Y-9313460D01*
X14580350Y-9303936D01*
X14570826Y-9294412D01*
X14561302Y-9275364D01*
X14551778Y-9237269D01*
X14551778Y-9189650D01*
X14561302Y-9151555D01*
X14570826Y-9132507D01*
X14580350Y-9122984D01*
X14599397Y-9113460D01*
X14751778Y-9313460D02*
X14751778Y-9180126D01*
X14751778Y-9199174D02*
X14761302Y-9189650D01*
X14780350Y-9180126D01*
X14808921Y-9180126D01*
X14827969Y-9189650D01*
X14837493Y-9208698D01*
X14837493Y-9313460D01*
X14837493Y-9208698D02*
X14847016Y-9189650D01*
X14866064Y-9180126D01*
X14894635Y-9180126D01*
X14913683Y-9189650D01*
X14923207Y-9208698D01*
X14923207Y-9313460D01*
X15018445Y-9313460D02*
X15018445Y-9180126D01*
X15018445Y-9199174D02*
X15027969Y-9189650D01*
X15047016Y-9180126D01*
X15075588Y-9180126D01*
X15094635Y-9189650D01*
X15104159Y-9208698D01*
X15104159Y-9313460D01*
X15104159Y-9208698D02*
X15113683Y-9189650D01*
X15132731Y-9180126D01*
X15161302Y-9180126D01*
X15180350Y-9189650D01*
X15189874Y-9208698D01*
X15189874Y-9313460D01*
X15580350Y-9103936D02*
X15408921Y-9361079D01*
X15837493Y-9113460D02*
X15856540Y-9113460D01*
X15875588Y-9122984D01*
X15885112Y-9132507D01*
X15894635Y-9151555D01*
X15904159Y-9189650D01*
X15904159Y-9237269D01*
X15894635Y-9275364D01*
X15885112Y-9294412D01*
X15875588Y-9303936D01*
X15856540Y-9313460D01*
X15837493Y-9313460D01*
X15818445Y-9303936D01*
X15808921Y-9294412D01*
X15799397Y-9275364D01*
X15789874Y-9237269D01*
X15789874Y-9189650D01*
X15799397Y-9151555D01*
X15808921Y-9132507D01*
X15818445Y-9122984D01*
X15837493Y-9113460D01*
X15989874Y-9294412D02*
X15999397Y-9303936D01*
X15989874Y-9313460D01*
X15980350Y-9303936D01*
X15989874Y-9294412D01*
X15989874Y-9313460D01*
X16123207Y-9113460D02*
X16142254Y-9113460D01*
X16161302Y-9122984D01*
X16170826Y-9132507D01*
X16180350Y-9151555D01*
X16189874Y-9189650D01*
X16189874Y-9237269D01*
X16180350Y-9275364D01*
X16170826Y-9294412D01*
X16161302Y-9303936D01*
X16142254Y-9313460D01*
X16123207Y-9313460D01*
X16104159Y-9303936D01*
X16094635Y-9294412D01*
X16085112Y-9275364D01*
X16075588Y-9237269D01*
X16075588Y-9189650D01*
X16085112Y-9151555D01*
X16094635Y-9132507D01*
X16104159Y-9122984D01*
X16123207Y-9113460D01*
X16380350Y-9313460D02*
X16266064Y-9313460D01*
X16323207Y-9313460D02*
X16323207Y-9113460D01*
X16304159Y-9142031D01*
X16285112Y-9161079D01*
X16266064Y-9170603D01*
X16561302Y-9113460D02*
X16466064Y-9113460D01*
X16456540Y-9208698D01*
X16466064Y-9199174D01*
X16485112Y-9189650D01*
X16532731Y-9189650D01*
X16551778Y-9199174D01*
X16561302Y-9208698D01*
X16570826Y-9227745D01*
X16570826Y-9275364D01*
X16561302Y-9294412D01*
X16551778Y-9303936D01*
X16532731Y-9313460D01*
X16485112Y-9313460D01*
X16466064Y-9303936D01*
X16456540Y-9294412D01*
X16637493Y-9113460D02*
X16770826Y-9113460D01*
X16685112Y-9313460D01*
X16837493Y-9113460D02*
X16837493Y-9151555D01*
X16913683Y-9113460D02*
X16913683Y-9151555D01*
X17208921Y-9389650D02*
X17199397Y-9380126D01*
X17180350Y-9351555D01*
X17170826Y-9332507D01*
X17161302Y-9303936D01*
X17151778Y-9256317D01*
X17151778Y-9218222D01*
X17161302Y-9170603D01*
X17170826Y-9142031D01*
X17180350Y-9122984D01*
X17199397Y-9094412D01*
X17208921Y-9084888D01*
X17370826Y-9180126D02*
X17370826Y-9313460D01*
X17323207Y-9103936D02*
X17275588Y-9246793D01*
X17399397Y-9246793D01*
X17456540Y-9113460D02*
X17580350Y-9113460D01*
X17513683Y-9189650D01*
X17542255Y-9189650D01*
X17561302Y-9199174D01*
X17570826Y-9208698D01*
X17580350Y-9227745D01*
X17580350Y-9275364D01*
X17570826Y-9294412D01*
X17561302Y-9303936D01*
X17542255Y-9313460D01*
X17485112Y-9313460D01*
X17466064Y-9303936D01*
X17456540Y-9294412D01*
X17818445Y-9313460D02*
X17818445Y-9113460D01*
X17904159Y-9313460D02*
X17904159Y-9208698D01*
X17894636Y-9189650D01*
X17875588Y-9180126D01*
X17847016Y-9180126D01*
X17827969Y-9189650D01*
X17818445Y-9199174D01*
X18027969Y-9313460D02*
X18008921Y-9303936D01*
X17999397Y-9294412D01*
X17989874Y-9275364D01*
X17989874Y-9218222D01*
X17999397Y-9199174D01*
X18008921Y-9189650D01*
X18027969Y-9180126D01*
X18056540Y-9180126D01*
X18075588Y-9189650D01*
X18085112Y-9199174D01*
X18094636Y-9218222D01*
X18094636Y-9275364D01*
X18085112Y-9294412D01*
X18075588Y-9303936D01*
X18056540Y-9313460D01*
X18027969Y-9313460D01*
X18208921Y-9313460D02*
X18189874Y-9303936D01*
X18180350Y-9284888D01*
X18180350Y-9113460D01*
X18361302Y-9303936D02*
X18342255Y-9313460D01*
X18304159Y-9313460D01*
X18285112Y-9303936D01*
X18275588Y-9284888D01*
X18275588Y-9208698D01*
X18285112Y-9189650D01*
X18304159Y-9180126D01*
X18342255Y-9180126D01*
X18361302Y-9189650D01*
X18370826Y-9208698D01*
X18370826Y-9227745D01*
X18275588Y-9246793D01*
X18447016Y-9303936D02*
X18466064Y-9313460D01*
X18504159Y-9313460D01*
X18523207Y-9303936D01*
X18532731Y-9284888D01*
X18532731Y-9275364D01*
X18523207Y-9256317D01*
X18504159Y-9246793D01*
X18475588Y-9246793D01*
X18456540Y-9237269D01*
X18447016Y-9218222D01*
X18447016Y-9208698D01*
X18456540Y-9189650D01*
X18475588Y-9180126D01*
X18504159Y-9180126D01*
X18523207Y-9189650D01*
X18599397Y-9389650D02*
X18608921Y-9380126D01*
X18627969Y-9351555D01*
X18637493Y-9332507D01*
X18647016Y-9303936D01*
X18656540Y-9256317D01*
X18656540Y-9218222D01*
X18647016Y-9170603D01*
X18637493Y-9142031D01*
X18627969Y-9122984D01*
X18608921Y-9094412D01*
X18599397Y-9084888D01*
D13*
X13637016Y-9486984D02*
G75*
G03*
X13637016Y-9486984I-60000J0D01*
G01*
D11*
X13999397Y-9577460D02*
X13885112Y-9577460D01*
X13942254Y-9577460D02*
X13942254Y-9377460D01*
X13923207Y-9406031D01*
X13904159Y-9425079D01*
X13885112Y-9434603D01*
X14085112Y-9558412D02*
X14094635Y-9567936D01*
X14085112Y-9577460D01*
X14075588Y-9567936D01*
X14085112Y-9558412D01*
X14085112Y-9577460D01*
X14170826Y-9396507D02*
X14180350Y-9386984D01*
X14199397Y-9377460D01*
X14247016Y-9377460D01*
X14266064Y-9386984D01*
X14275588Y-9396507D01*
X14285112Y-9415555D01*
X14285112Y-9434603D01*
X14275588Y-9463174D01*
X14161302Y-9577460D01*
X14285112Y-9577460D01*
X14408921Y-9377460D02*
X14427969Y-9377460D01*
X14447016Y-9386984D01*
X14456540Y-9396507D01*
X14466064Y-9415555D01*
X14475588Y-9453650D01*
X14475588Y-9501269D01*
X14466064Y-9539364D01*
X14456540Y-9558412D01*
X14447016Y-9567936D01*
X14427969Y-9577460D01*
X14408921Y-9577460D01*
X14389874Y-9567936D01*
X14380350Y-9558412D01*
X14370826Y-9539364D01*
X14361302Y-9501269D01*
X14361302Y-9453650D01*
X14370826Y-9415555D01*
X14380350Y-9396507D01*
X14389874Y-9386984D01*
X14408921Y-9377460D01*
X14599397Y-9377460D02*
X14618445Y-9377460D01*
X14637493Y-9386984D01*
X14647016Y-9396507D01*
X14656540Y-9415555D01*
X14666064Y-9453650D01*
X14666064Y-9501269D01*
X14656540Y-9539364D01*
X14647016Y-9558412D01*
X14637493Y-9567936D01*
X14618445Y-9577460D01*
X14599397Y-9577460D01*
X14580350Y-9567936D01*
X14570826Y-9558412D01*
X14561302Y-9539364D01*
X14551778Y-9501269D01*
X14551778Y-9453650D01*
X14561302Y-9415555D01*
X14570826Y-9396507D01*
X14580350Y-9386984D01*
X14599397Y-9377460D01*
X14751778Y-9577460D02*
X14751778Y-9444126D01*
X14751778Y-9463174D02*
X14761302Y-9453650D01*
X14780350Y-9444126D01*
X14808921Y-9444126D01*
X14827969Y-9453650D01*
X14837493Y-9472698D01*
X14837493Y-9577460D01*
X14837493Y-9472698D02*
X14847016Y-9453650D01*
X14866064Y-9444126D01*
X14894635Y-9444126D01*
X14913683Y-9453650D01*
X14923207Y-9472698D01*
X14923207Y-9577460D01*
X15018445Y-9577460D02*
X15018445Y-9444126D01*
X15018445Y-9463174D02*
X15027969Y-9453650D01*
X15047016Y-9444126D01*
X15075588Y-9444126D01*
X15094635Y-9453650D01*
X15104159Y-9472698D01*
X15104159Y-9577460D01*
X15104159Y-9472698D02*
X15113683Y-9453650D01*
X15132731Y-9444126D01*
X15161302Y-9444126D01*
X15180350Y-9453650D01*
X15189874Y-9472698D01*
X15189874Y-9577460D01*
X15580350Y-9367936D02*
X15408921Y-9625079D01*
X15837493Y-9377460D02*
X15856540Y-9377460D01*
X15875588Y-9386984D01*
X15885112Y-9396507D01*
X15894635Y-9415555D01*
X15904159Y-9453650D01*
X15904159Y-9501269D01*
X15894635Y-9539364D01*
X15885112Y-9558412D01*
X15875588Y-9567936D01*
X15856540Y-9577460D01*
X15837493Y-9577460D01*
X15818445Y-9567936D01*
X15808921Y-9558412D01*
X15799397Y-9539364D01*
X15789874Y-9501269D01*
X15789874Y-9453650D01*
X15799397Y-9415555D01*
X15808921Y-9396507D01*
X15818445Y-9386984D01*
X15837493Y-9377460D01*
X15989874Y-9558412D02*
X15999397Y-9567936D01*
X15989874Y-9577460D01*
X15980350Y-9567936D01*
X15989874Y-9558412D01*
X15989874Y-9577460D01*
X16123207Y-9377460D02*
X16142254Y-9377460D01*
X16161302Y-9386984D01*
X16170826Y-9396507D01*
X16180350Y-9415555D01*
X16189874Y-9453650D01*
X16189874Y-9501269D01*
X16180350Y-9539364D01*
X16170826Y-9558412D01*
X16161302Y-9567936D01*
X16142254Y-9577460D01*
X16123207Y-9577460D01*
X16104159Y-9567936D01*
X16094635Y-9558412D01*
X16085112Y-9539364D01*
X16075588Y-9501269D01*
X16075588Y-9453650D01*
X16085112Y-9415555D01*
X16094635Y-9396507D01*
X16104159Y-9386984D01*
X16123207Y-9377460D01*
X16361302Y-9444126D02*
X16361302Y-9577460D01*
X16313683Y-9367936D02*
X16266064Y-9510793D01*
X16389874Y-9510793D01*
X16447016Y-9377460D02*
X16580350Y-9377460D01*
X16494635Y-9577460D01*
X16647016Y-9396507D02*
X16656540Y-9386984D01*
X16675588Y-9377460D01*
X16723207Y-9377460D01*
X16742254Y-9386984D01*
X16751778Y-9396507D01*
X16761302Y-9415555D01*
X16761302Y-9434603D01*
X16751778Y-9463174D01*
X16637493Y-9577460D01*
X16761302Y-9577460D01*
X16837493Y-9377460D02*
X16837493Y-9415555D01*
X16913683Y-9377460D02*
X16913683Y-9415555D01*
X17208921Y-9653650D02*
X17199397Y-9644126D01*
X17180350Y-9615555D01*
X17170826Y-9596507D01*
X17161302Y-9567936D01*
X17151778Y-9520317D01*
X17151778Y-9482222D01*
X17161302Y-9434603D01*
X17170826Y-9406031D01*
X17180350Y-9386984D01*
X17199397Y-9358412D01*
X17208921Y-9348888D01*
X17313683Y-9463174D02*
X17294636Y-9453650D01*
X17285112Y-9444126D01*
X17275588Y-9425079D01*
X17275588Y-9415555D01*
X17285112Y-9396507D01*
X17294636Y-9386984D01*
X17313683Y-9377460D01*
X17351778Y-9377460D01*
X17370826Y-9386984D01*
X17380350Y-9396507D01*
X17389874Y-9415555D01*
X17389874Y-9425079D01*
X17380350Y-9444126D01*
X17370826Y-9453650D01*
X17351778Y-9463174D01*
X17313683Y-9463174D01*
X17294636Y-9472698D01*
X17285112Y-9482222D01*
X17275588Y-9501269D01*
X17275588Y-9539364D01*
X17285112Y-9558412D01*
X17294636Y-9567936D01*
X17313683Y-9577460D01*
X17351778Y-9577460D01*
X17370826Y-9567936D01*
X17380350Y-9558412D01*
X17389874Y-9539364D01*
X17389874Y-9501269D01*
X17380350Y-9482222D01*
X17370826Y-9472698D01*
X17351778Y-9463174D01*
X17627969Y-9577460D02*
X17627969Y-9377460D01*
X17713683Y-9577460D02*
X17713683Y-9472698D01*
X17704159Y-9453650D01*
X17685112Y-9444126D01*
X17656540Y-9444126D01*
X17637493Y-9453650D01*
X17627969Y-9463174D01*
X17837493Y-9577460D02*
X17818445Y-9567936D01*
X17808921Y-9558412D01*
X17799397Y-9539364D01*
X17799397Y-9482222D01*
X17808921Y-9463174D01*
X17818445Y-9453650D01*
X17837493Y-9444126D01*
X17866064Y-9444126D01*
X17885112Y-9453650D01*
X17894636Y-9463174D01*
X17904159Y-9482222D01*
X17904159Y-9539364D01*
X17894636Y-9558412D01*
X17885112Y-9567936D01*
X17866064Y-9577460D01*
X17837493Y-9577460D01*
X18018445Y-9577460D02*
X17999397Y-9567936D01*
X17989874Y-9548888D01*
X17989874Y-9377460D01*
X18170826Y-9567936D02*
X18151778Y-9577460D01*
X18113683Y-9577460D01*
X18094636Y-9567936D01*
X18085112Y-9548888D01*
X18085112Y-9472698D01*
X18094636Y-9453650D01*
X18113683Y-9444126D01*
X18151778Y-9444126D01*
X18170826Y-9453650D01*
X18180350Y-9472698D01*
X18180350Y-9491745D01*
X18085112Y-9510793D01*
X18256540Y-9567936D02*
X18275588Y-9577460D01*
X18313683Y-9577460D01*
X18332731Y-9567936D01*
X18342255Y-9548888D01*
X18342255Y-9539364D01*
X18332731Y-9520317D01*
X18313683Y-9510793D01*
X18285112Y-9510793D01*
X18266064Y-9501269D01*
X18256540Y-9482222D01*
X18256540Y-9472698D01*
X18266064Y-9453650D01*
X18285112Y-9444126D01*
X18313683Y-9444126D01*
X18332731Y-9453650D01*
X18408921Y-9653650D02*
X18418445Y-9644126D01*
X18437493Y-9615555D01*
X18447016Y-9596507D01*
X18456540Y-9567936D01*
X18466064Y-9520317D01*
X18466064Y-9482222D01*
X18456540Y-9434603D01*
X18447016Y-9406031D01*
X18437493Y-9386984D01*
X18418445Y-9358412D01*
X18408921Y-9348888D01*
D14*
X13602016Y-9715984D02*
X13602016Y-9785984D01*
X13567016Y-9750984D02*
X13637016Y-9750984D01*
D11*
X13932731Y-9641460D02*
X13951778Y-9641460D01*
X13970826Y-9650984D01*
X13980350Y-9660507D01*
X13989874Y-9679555D01*
X13999397Y-9717650D01*
X13999397Y-9765269D01*
X13989874Y-9803364D01*
X13980350Y-9822412D01*
X13970826Y-9831936D01*
X13951778Y-9841460D01*
X13932731Y-9841460D01*
X13913683Y-9831936D01*
X13904159Y-9822412D01*
X13894635Y-9803364D01*
X13885112Y-9765269D01*
X13885112Y-9717650D01*
X13894635Y-9679555D01*
X13904159Y-9660507D01*
X13913683Y-9650984D01*
X13932731Y-9641460D01*
X14085112Y-9822412D02*
X14094635Y-9831936D01*
X14085112Y-9841460D01*
X14075588Y-9831936D01*
X14085112Y-9822412D01*
X14085112Y-9841460D01*
X14161302Y-9641460D02*
X14294635Y-9641460D01*
X14208921Y-9841460D01*
X14408921Y-9641460D02*
X14427969Y-9641460D01*
X14447016Y-9650984D01*
X14456540Y-9660507D01*
X14466064Y-9679555D01*
X14475588Y-9717650D01*
X14475588Y-9765269D01*
X14466064Y-9803364D01*
X14456540Y-9822412D01*
X14447016Y-9831936D01*
X14427969Y-9841460D01*
X14408921Y-9841460D01*
X14389874Y-9831936D01*
X14380350Y-9822412D01*
X14370826Y-9803364D01*
X14361302Y-9765269D01*
X14361302Y-9717650D01*
X14370826Y-9679555D01*
X14380350Y-9660507D01*
X14389874Y-9650984D01*
X14408921Y-9641460D01*
X14599397Y-9641460D02*
X14618445Y-9641460D01*
X14637493Y-9650984D01*
X14647016Y-9660507D01*
X14656540Y-9679555D01*
X14666064Y-9717650D01*
X14666064Y-9765269D01*
X14656540Y-9803364D01*
X14647016Y-9822412D01*
X14637493Y-9831936D01*
X14618445Y-9841460D01*
X14599397Y-9841460D01*
X14580350Y-9831936D01*
X14570826Y-9822412D01*
X14561302Y-9803364D01*
X14551778Y-9765269D01*
X14551778Y-9717650D01*
X14561302Y-9679555D01*
X14570826Y-9660507D01*
X14580350Y-9650984D01*
X14599397Y-9641460D01*
X14751778Y-9841460D02*
X14751778Y-9708126D01*
X14751778Y-9727174D02*
X14761302Y-9717650D01*
X14780350Y-9708126D01*
X14808921Y-9708126D01*
X14827969Y-9717650D01*
X14837493Y-9736698D01*
X14837493Y-9841460D01*
X14837493Y-9736698D02*
X14847016Y-9717650D01*
X14866064Y-9708126D01*
X14894635Y-9708126D01*
X14913683Y-9717650D01*
X14923207Y-9736698D01*
X14923207Y-9841460D01*
X15018445Y-9841460D02*
X15018445Y-9708126D01*
X15018445Y-9727174D02*
X15027969Y-9717650D01*
X15047016Y-9708126D01*
X15075588Y-9708126D01*
X15094635Y-9717650D01*
X15104159Y-9736698D01*
X15104159Y-9841460D01*
X15104159Y-9736698D02*
X15113683Y-9717650D01*
X15132731Y-9708126D01*
X15161302Y-9708126D01*
X15180350Y-9717650D01*
X15189874Y-9736698D01*
X15189874Y-9841460D01*
X15580350Y-9631936D02*
X15408921Y-9889079D01*
X15837493Y-9641460D02*
X15856540Y-9641460D01*
X15875588Y-9650984D01*
X15885112Y-9660507D01*
X15894635Y-9679555D01*
X15904159Y-9717650D01*
X15904159Y-9765269D01*
X15894635Y-9803364D01*
X15885112Y-9822412D01*
X15875588Y-9831936D01*
X15856540Y-9841460D01*
X15837493Y-9841460D01*
X15818445Y-9831936D01*
X15808921Y-9822412D01*
X15799397Y-9803364D01*
X15789874Y-9765269D01*
X15789874Y-9717650D01*
X15799397Y-9679555D01*
X15808921Y-9660507D01*
X15818445Y-9650984D01*
X15837493Y-9641460D01*
X15989874Y-9822412D02*
X15999397Y-9831936D01*
X15989874Y-9841460D01*
X15980350Y-9831936D01*
X15989874Y-9822412D01*
X15989874Y-9841460D01*
X16123207Y-9641460D02*
X16142254Y-9641460D01*
X16161302Y-9650984D01*
X16170826Y-9660507D01*
X16180350Y-9679555D01*
X16189874Y-9717650D01*
X16189874Y-9765269D01*
X16180350Y-9803364D01*
X16170826Y-9822412D01*
X16161302Y-9831936D01*
X16142254Y-9841460D01*
X16123207Y-9841460D01*
X16104159Y-9831936D01*
X16094635Y-9822412D01*
X16085112Y-9803364D01*
X16075588Y-9765269D01*
X16075588Y-9717650D01*
X16085112Y-9679555D01*
X16094635Y-9660507D01*
X16104159Y-9650984D01*
X16123207Y-9641460D01*
X16266064Y-9660507D02*
X16275588Y-9650984D01*
X16294635Y-9641460D01*
X16342254Y-9641460D01*
X16361302Y-9650984D01*
X16370826Y-9660507D01*
X16380350Y-9679555D01*
X16380350Y-9698603D01*
X16370826Y-9727174D01*
X16256540Y-9841460D01*
X16380350Y-9841460D01*
X16447016Y-9641460D02*
X16580350Y-9641460D01*
X16494635Y-9841460D01*
X16742254Y-9641460D02*
X16704159Y-9641460D01*
X16685112Y-9650984D01*
X16675588Y-9660507D01*
X16656540Y-9689079D01*
X16647016Y-9727174D01*
X16647016Y-9803364D01*
X16656540Y-9822412D01*
X16666064Y-9831936D01*
X16685112Y-9841460D01*
X16723207Y-9841460D01*
X16742254Y-9831936D01*
X16751778Y-9822412D01*
X16761302Y-9803364D01*
X16761302Y-9755745D01*
X16751778Y-9736698D01*
X16742254Y-9727174D01*
X16723207Y-9717650D01*
X16685112Y-9717650D01*
X16666064Y-9727174D01*
X16656540Y-9736698D01*
X16647016Y-9755745D01*
X16837493Y-9641460D02*
X16837493Y-9679555D01*
X16913683Y-9641460D02*
X16913683Y-9679555D01*
X17208921Y-9917650D02*
X17199397Y-9908126D01*
X17180350Y-9879555D01*
X17170826Y-9860507D01*
X17161302Y-9831936D01*
X17151778Y-9784317D01*
X17151778Y-9746222D01*
X17161302Y-9698603D01*
X17170826Y-9670031D01*
X17180350Y-9650984D01*
X17199397Y-9622412D01*
X17208921Y-9612888D01*
X17380350Y-9641460D02*
X17285112Y-9641460D01*
X17275588Y-9736698D01*
X17285112Y-9727174D01*
X17304159Y-9717650D01*
X17351778Y-9717650D01*
X17370826Y-9727174D01*
X17380350Y-9736698D01*
X17389874Y-9755745D01*
X17389874Y-9803364D01*
X17380350Y-9822412D01*
X17370826Y-9831936D01*
X17351778Y-9841460D01*
X17304159Y-9841460D01*
X17285112Y-9831936D01*
X17275588Y-9822412D01*
X17627969Y-9841460D02*
X17627969Y-9641460D01*
X17713683Y-9841460D02*
X17713683Y-9736698D01*
X17704159Y-9717650D01*
X17685112Y-9708126D01*
X17656540Y-9708126D01*
X17637493Y-9717650D01*
X17627969Y-9727174D01*
X17837493Y-9841460D02*
X17818445Y-9831936D01*
X17808921Y-9822412D01*
X17799397Y-9803364D01*
X17799397Y-9746222D01*
X17808921Y-9727174D01*
X17818445Y-9717650D01*
X17837493Y-9708126D01*
X17866064Y-9708126D01*
X17885112Y-9717650D01*
X17894636Y-9727174D01*
X17904159Y-9746222D01*
X17904159Y-9803364D01*
X17894636Y-9822412D01*
X17885112Y-9831936D01*
X17866064Y-9841460D01*
X17837493Y-9841460D01*
X18018445Y-9841460D02*
X17999397Y-9831936D01*
X17989874Y-9812888D01*
X17989874Y-9641460D01*
X18170826Y-9831936D02*
X18151778Y-9841460D01*
X18113683Y-9841460D01*
X18094636Y-9831936D01*
X18085112Y-9812888D01*
X18085112Y-9736698D01*
X18094636Y-9717650D01*
X18113683Y-9708126D01*
X18151778Y-9708126D01*
X18170826Y-9717650D01*
X18180350Y-9736698D01*
X18180350Y-9755745D01*
X18085112Y-9774793D01*
X18256540Y-9831936D02*
X18275588Y-9841460D01*
X18313683Y-9841460D01*
X18332731Y-9831936D01*
X18342255Y-9812888D01*
X18342255Y-9803364D01*
X18332731Y-9784317D01*
X18313683Y-9774793D01*
X18285112Y-9774793D01*
X18266064Y-9765269D01*
X18256540Y-9746222D01*
X18256540Y-9736698D01*
X18266064Y-9717650D01*
X18285112Y-9708126D01*
X18313683Y-9708126D01*
X18332731Y-9717650D01*
X18408921Y-9917650D02*
X18418445Y-9908126D01*
X18437493Y-9879555D01*
X18447016Y-9860507D01*
X18456540Y-9831936D01*
X18466064Y-9784317D01*
X18466064Y-9746222D01*
X18456540Y-9698603D01*
X18447016Y-9670031D01*
X18437493Y-9650984D01*
X18418445Y-9622412D01*
X18408921Y-9612888D01*
X18770826Y-9917650D02*
X18761302Y-9908126D01*
X18742255Y-9879555D01*
X18732731Y-9860507D01*
X18723207Y-9831936D01*
X18713683Y-9784317D01*
X18713683Y-9746222D01*
X18723207Y-9698603D01*
X18732731Y-9670031D01*
X18742255Y-9650984D01*
X18761302Y-9622412D01*
X18770826Y-9612888D01*
X18847016Y-9708126D02*
X18847016Y-9841460D01*
X18847016Y-9727174D02*
X18856540Y-9717650D01*
X18875588Y-9708126D01*
X18904159Y-9708126D01*
X18923207Y-9717650D01*
X18932731Y-9736698D01*
X18932731Y-9841460D01*
X19056540Y-9841460D02*
X19037493Y-9831936D01*
X19027969Y-9822412D01*
X19018445Y-9803364D01*
X19018445Y-9746222D01*
X19027969Y-9727174D01*
X19037493Y-9717650D01*
X19056540Y-9708126D01*
X19085112Y-9708126D01*
X19104159Y-9717650D01*
X19113683Y-9727174D01*
X19123207Y-9746222D01*
X19123207Y-9803364D01*
X19113683Y-9822412D01*
X19104159Y-9831936D01*
X19085112Y-9841460D01*
X19056540Y-9841460D01*
X19180350Y-9708126D02*
X19256540Y-9708126D01*
X19208921Y-9641460D02*
X19208921Y-9812888D01*
X19218445Y-9831936D01*
X19237493Y-9841460D01*
X19256540Y-9841460D01*
X19475588Y-9708126D02*
X19475588Y-9908126D01*
X19475588Y-9717650D02*
X19494636Y-9708126D01*
X19532731Y-9708126D01*
X19551778Y-9717650D01*
X19561302Y-9727174D01*
X19570826Y-9746222D01*
X19570826Y-9803364D01*
X19561302Y-9822412D01*
X19551778Y-9831936D01*
X19532731Y-9841460D01*
X19494636Y-9841460D01*
X19475588Y-9831936D01*
X19685112Y-9841460D02*
X19666064Y-9831936D01*
X19656540Y-9812888D01*
X19656540Y-9641460D01*
X19847016Y-9841460D02*
X19847016Y-9736698D01*
X19837493Y-9717650D01*
X19818445Y-9708126D01*
X19780350Y-9708126D01*
X19761302Y-9717650D01*
X19847016Y-9831936D02*
X19827969Y-9841460D01*
X19780350Y-9841460D01*
X19761302Y-9831936D01*
X19751778Y-9812888D01*
X19751778Y-9793841D01*
X19761302Y-9774793D01*
X19780350Y-9765269D01*
X19827969Y-9765269D01*
X19847016Y-9755745D01*
X19913683Y-9708126D02*
X19989874Y-9708126D01*
X19942255Y-9641460D02*
X19942255Y-9812888D01*
X19951778Y-9831936D01*
X19970826Y-9841460D01*
X19989874Y-9841460D01*
X20132731Y-9831936D02*
X20113683Y-9841460D01*
X20075588Y-9841460D01*
X20056540Y-9831936D01*
X20047016Y-9812888D01*
X20047016Y-9736698D01*
X20056540Y-9717650D01*
X20075588Y-9708126D01*
X20113683Y-9708126D01*
X20132731Y-9717650D01*
X20142255Y-9736698D01*
X20142255Y-9755745D01*
X20047016Y-9774793D01*
X20313683Y-9841460D02*
X20313683Y-9641460D01*
X20313683Y-9831936D02*
X20294636Y-9841460D01*
X20256540Y-9841460D01*
X20237493Y-9831936D01*
X20227969Y-9822412D01*
X20218445Y-9803364D01*
X20218445Y-9746222D01*
X20227969Y-9727174D01*
X20237493Y-9717650D01*
X20256540Y-9708126D01*
X20294636Y-9708126D01*
X20313683Y-9717650D01*
X20389874Y-9917650D02*
X20399397Y-9908126D01*
X20418445Y-9879555D01*
X20427969Y-9860507D01*
X20437493Y-9831936D01*
X20447016Y-9784317D01*
X20447016Y-9746222D01*
X20437493Y-9698603D01*
X20427969Y-9670031D01*
X20418445Y-9650984D01*
X20399397Y-9622412D01*
X20389874Y-9612888D01*
M02*
