G04 #@! TF.GenerationSoftware,KiCad,Pcbnew,(6.0.7)*
G04 #@! TF.CreationDate,2022-08-30T17:39:21-06:00*
G04 #@! TF.ProjectId,malenki-1616-3A,6d616c65-6e6b-4692-9d31-3631362d3341,rev?*
G04 #@! TF.SameCoordinates,Original*
G04 #@! TF.FileFunction,Legend,Top*
G04 #@! TF.FilePolarity,Positive*
%FSLAX46Y46*%
G04 Gerber Fmt 4.6, Leading zero omitted, Abs format (unit mm)*
G04 Created by KiCad (PCBNEW (6.0.7)) date 2022-08-30 17:39:21*
%MOMM*%
%LPD*%
G01*
G04 APERTURE LIST*
%ADD10C,0.150000*%
%ADD11C,0.300000*%
%ADD12C,0.120000*%
%ADD13C,0.100000*%
%ADD14O,2.300000X2.000000*%
%ADD15R,2.200000X1.200000*%
%ADD16C,0.700000*%
%ADD17O,1.500000X0.800000*%
G04 APERTURE END LIST*
D10*
X139573047Y-79827428D02*
X140334952Y-79827428D01*
X139954000Y-80208380D02*
X139954000Y-79446476D01*
X139573047Y-85415428D02*
X140334952Y-85415428D01*
D11*
X146295000Y-79633333D02*
X145628333Y-79633333D01*
X145628333Y-78233333D01*
D10*
X137223666Y-78938380D02*
X137223666Y-77938380D01*
X137604619Y-77938380D01*
X137699857Y-77986000D01*
X137747476Y-78033619D01*
X137795095Y-78128857D01*
X137795095Y-78271714D01*
X137747476Y-78366952D01*
X137699857Y-78414571D01*
X137604619Y-78462190D01*
X137223666Y-78462190D01*
X138128428Y-77938380D02*
X138366523Y-78938380D01*
X138557000Y-78224095D01*
X138747476Y-78938380D01*
X138985571Y-77938380D01*
X139937952Y-78938380D02*
X139604619Y-78462190D01*
X139366523Y-78938380D02*
X139366523Y-77938380D01*
X139747476Y-77938380D01*
X139842714Y-77986000D01*
X139890333Y-78033619D01*
X139937952Y-78128857D01*
X139937952Y-78271714D01*
X139890333Y-78366952D01*
X139842714Y-78414571D01*
X139747476Y-78462190D01*
X139366523Y-78462190D01*
X136779047Y-85415428D02*
X137540952Y-85415428D01*
X136525047Y-79573428D02*
X137286952Y-79573428D01*
X136906000Y-79954380D02*
X136906000Y-79192476D01*
D11*
X150328333Y-79633333D02*
X149861666Y-78966666D01*
X149528333Y-79633333D02*
X149528333Y-78233333D01*
X150061666Y-78233333D01*
X150195000Y-78300000D01*
X150261666Y-78366666D01*
X150328333Y-78500000D01*
X150328333Y-78700000D01*
X150261666Y-78833333D01*
X150195000Y-78900000D01*
X150061666Y-78966666D01*
X149528333Y-78966666D01*
D10*
X137001571Y-71465880D02*
X137001571Y-70465880D01*
X137334904Y-71180166D01*
X137668238Y-70465880D01*
X137668238Y-71465880D01*
X138573000Y-71465880D02*
X138573000Y-70942071D01*
X138525380Y-70846833D01*
X138430142Y-70799214D01*
X138239666Y-70799214D01*
X138144428Y-70846833D01*
X138573000Y-71418261D02*
X138477761Y-71465880D01*
X138239666Y-71465880D01*
X138144428Y-71418261D01*
X138096809Y-71323023D01*
X138096809Y-71227785D01*
X138144428Y-71132547D01*
X138239666Y-71084928D01*
X138477761Y-71084928D01*
X138573000Y-71037309D01*
X139192047Y-71465880D02*
X139096809Y-71418261D01*
X139049190Y-71323023D01*
X139049190Y-70465880D01*
X139953952Y-71418261D02*
X139858714Y-71465880D01*
X139668238Y-71465880D01*
X139573000Y-71418261D01*
X139525380Y-71323023D01*
X139525380Y-70942071D01*
X139573000Y-70846833D01*
X139668238Y-70799214D01*
X139858714Y-70799214D01*
X139953952Y-70846833D01*
X140001571Y-70942071D01*
X140001571Y-71037309D01*
X139525380Y-71132547D01*
X140430142Y-70799214D02*
X140430142Y-71465880D01*
X140430142Y-70894452D02*
X140477761Y-70846833D01*
X140573000Y-70799214D01*
X140715857Y-70799214D01*
X140811095Y-70846833D01*
X140858714Y-70942071D01*
X140858714Y-71465880D01*
X141334904Y-71465880D02*
X141334904Y-70465880D01*
X141430142Y-71084928D02*
X141715857Y-71465880D01*
X141715857Y-70799214D02*
X141334904Y-71180166D01*
X142144428Y-71465880D02*
X142144428Y-70799214D01*
X142144428Y-70465880D02*
X142096809Y-70513500D01*
X142144428Y-70561119D01*
X142192047Y-70513500D01*
X142144428Y-70465880D01*
X142144428Y-70561119D01*
X137930142Y-73075880D02*
X137930142Y-72075880D01*
X138501571Y-73075880D01*
X138501571Y-72075880D01*
X139406333Y-73075880D02*
X139406333Y-72552071D01*
X139358714Y-72456833D01*
X139263476Y-72409214D01*
X139073000Y-72409214D01*
X138977761Y-72456833D01*
X139406333Y-73028261D02*
X139311095Y-73075880D01*
X139073000Y-73075880D01*
X138977761Y-73028261D01*
X138930142Y-72933023D01*
X138930142Y-72837785D01*
X138977761Y-72742547D01*
X139073000Y-72694928D01*
X139311095Y-72694928D01*
X139406333Y-72647309D01*
X139882523Y-72409214D02*
X139882523Y-73075880D01*
X139882523Y-72504452D02*
X139930142Y-72456833D01*
X140025380Y-72409214D01*
X140168238Y-72409214D01*
X140263476Y-72456833D01*
X140311095Y-72552071D01*
X140311095Y-73075880D01*
X140930142Y-73075880D02*
X140834904Y-73028261D01*
X140787285Y-72980642D01*
X140739666Y-72885404D01*
X140739666Y-72599690D01*
X140787285Y-72504452D01*
X140834904Y-72456833D01*
X140930142Y-72409214D01*
X141073000Y-72409214D01*
X141168238Y-72456833D01*
X141215857Y-72504452D01*
X141263476Y-72599690D01*
X141263476Y-72885404D01*
X141215857Y-72980642D01*
X141168238Y-73028261D01*
X141073000Y-73075880D01*
X140930142Y-73075880D01*
D11*
X141595000Y-78233333D02*
X141928333Y-79633333D01*
X142195000Y-78633333D01*
X142461666Y-79633333D01*
X142795000Y-78233333D01*
D10*
X142611095Y-62286380D02*
X142611095Y-63095904D01*
X142658714Y-63191142D01*
X142706333Y-63238761D01*
X142801571Y-63286380D01*
X142992047Y-63286380D01*
X143087285Y-63238761D01*
X143134904Y-63191142D01*
X143182523Y-63095904D01*
X143182523Y-62286380D01*
X144182523Y-63286380D02*
X143611095Y-63286380D01*
X143896809Y-63286380D02*
X143896809Y-62286380D01*
X143801571Y-62429238D01*
X143706333Y-62524476D01*
X143611095Y-62572095D01*
X149746809Y-67288761D02*
X149889666Y-67336380D01*
X150127761Y-67336380D01*
X150222999Y-67288761D01*
X150270618Y-67241142D01*
X150318237Y-67145904D01*
X150318237Y-67050666D01*
X150270618Y-66955428D01*
X150222999Y-66907809D01*
X150127761Y-66860190D01*
X149937285Y-66812571D01*
X149842047Y-66764952D01*
X149794428Y-66717333D01*
X149746809Y-66622095D01*
X149746809Y-66526857D01*
X149794428Y-66431619D01*
X149842047Y-66384000D01*
X149937285Y-66336380D01*
X150175380Y-66336380D01*
X150318237Y-66384000D01*
X151318237Y-67241142D02*
X151270618Y-67288761D01*
X151127761Y-67336380D01*
X151032523Y-67336380D01*
X150889666Y-67288761D01*
X150794428Y-67193523D01*
X150746809Y-67098285D01*
X150699190Y-66907809D01*
X150699190Y-66764952D01*
X150746809Y-66574476D01*
X150794428Y-66479238D01*
X150889666Y-66384000D01*
X151032523Y-66336380D01*
X151127761Y-66336380D01*
X151270618Y-66384000D01*
X151318237Y-66431619D01*
X151699190Y-67288761D02*
X151842047Y-67336380D01*
X152080142Y-67336380D01*
X152175380Y-67288761D01*
X152222999Y-67241142D01*
X152270618Y-67145904D01*
X152270618Y-67050666D01*
X152222999Y-66955428D01*
X152175380Y-66907809D01*
X152080142Y-66860190D01*
X151889666Y-66812571D01*
X151794428Y-66764952D01*
X151746809Y-66717333D01*
X151699190Y-66622095D01*
X151699190Y-66526857D01*
X151746809Y-66431619D01*
X151794428Y-66384000D01*
X151889666Y-66336380D01*
X152127761Y-66336380D01*
X152270618Y-66384000D01*
X149699189Y-65338761D02*
X149842046Y-65386380D01*
X150080142Y-65386380D01*
X150175380Y-65338761D01*
X150222999Y-65291142D01*
X150270618Y-65195904D01*
X150270618Y-65100666D01*
X150222999Y-65005428D01*
X150175380Y-64957809D01*
X150080142Y-64910190D01*
X149889665Y-64862571D01*
X149794427Y-64814952D01*
X149746808Y-64767333D01*
X149699189Y-64672095D01*
X149699189Y-64576857D01*
X149746808Y-64481619D01*
X149794427Y-64434000D01*
X149889665Y-64386380D01*
X150127761Y-64386380D01*
X150270618Y-64434000D01*
X151270618Y-65291142D02*
X151222999Y-65338761D01*
X151080142Y-65386380D01*
X150984904Y-65386380D01*
X150842046Y-65338761D01*
X150746808Y-65243523D01*
X150699189Y-65148285D01*
X150651570Y-64957809D01*
X150651570Y-64814952D01*
X150699189Y-64624476D01*
X150746808Y-64529238D01*
X150842046Y-64434000D01*
X150984904Y-64386380D01*
X151080142Y-64386380D01*
X151222999Y-64434000D01*
X151270618Y-64481619D01*
X151699189Y-65386380D02*
X151699189Y-64386380D01*
X152270618Y-65386380D02*
X151842046Y-64814952D01*
X152270618Y-64386380D02*
X151699189Y-64957809D01*
X140246809Y-74284000D02*
X140151571Y-74236380D01*
X140008714Y-74236380D01*
X139865856Y-74284000D01*
X139770618Y-74379238D01*
X139722999Y-74474476D01*
X139675380Y-74664952D01*
X139675380Y-74807809D01*
X139722999Y-74998285D01*
X139770618Y-75093523D01*
X139865856Y-75188761D01*
X140008714Y-75236380D01*
X140103952Y-75236380D01*
X140246809Y-75188761D01*
X140294428Y-75141142D01*
X140294428Y-74807809D01*
X140103952Y-74807809D01*
X140722999Y-75236380D02*
X140722999Y-74236380D01*
X141294428Y-75236380D01*
X141294428Y-74236380D01*
X141770618Y-75236380D02*
X141770618Y-74236380D01*
X142008714Y-74236380D01*
X142151571Y-74284000D01*
X142246809Y-74379238D01*
X142294428Y-74474476D01*
X142342047Y-74664952D01*
X142342047Y-74807809D01*
X142294428Y-74998285D01*
X142246809Y-75093523D01*
X142151571Y-75188761D01*
X142008714Y-75236380D01*
X141770618Y-75236380D01*
X150175380Y-70434000D02*
X150080142Y-70386380D01*
X149937285Y-70386380D01*
X149794427Y-70434000D01*
X149699189Y-70529238D01*
X149651570Y-70624476D01*
X149603951Y-70814952D01*
X149603951Y-70957809D01*
X149651570Y-71148285D01*
X149699189Y-71243523D01*
X149794427Y-71338761D01*
X149937285Y-71386380D01*
X150032523Y-71386380D01*
X150175380Y-71338761D01*
X150222999Y-71291142D01*
X150222999Y-70957809D01*
X150032523Y-70957809D01*
X150651570Y-71386380D02*
X150651570Y-70386380D01*
X151222999Y-71386380D01*
X151222999Y-70386380D01*
X151699189Y-71386380D02*
X151699189Y-70386380D01*
X151937285Y-70386380D01*
X152080142Y-70434000D01*
X152175380Y-70529238D01*
X152222999Y-70624476D01*
X152270618Y-70814952D01*
X152270618Y-70957809D01*
X152222999Y-71148285D01*
X152175380Y-71243523D01*
X152080142Y-71338761D01*
X151937285Y-71386380D01*
X151699189Y-71386380D01*
X149175380Y-63288761D02*
X149318238Y-63336380D01*
X149556333Y-63336380D01*
X149651571Y-63288761D01*
X149699190Y-63241142D01*
X149746809Y-63145904D01*
X149746809Y-63050666D01*
X149699190Y-62955428D01*
X149651571Y-62907809D01*
X149556333Y-62860190D01*
X149365857Y-62812571D01*
X149270619Y-62764952D01*
X149223000Y-62717333D01*
X149175380Y-62622095D01*
X149175380Y-62526857D01*
X149223000Y-62431619D01*
X149270619Y-62384000D01*
X149365857Y-62336380D01*
X149603952Y-62336380D01*
X149746809Y-62384000D01*
X150175380Y-63336380D02*
X150175380Y-62336380D01*
X150413476Y-62336380D01*
X150556333Y-62384000D01*
X150651571Y-62479238D01*
X150699190Y-62574476D01*
X150746809Y-62764952D01*
X150746809Y-62907809D01*
X150699190Y-63098285D01*
X150651571Y-63193523D01*
X150556333Y-63288761D01*
X150413476Y-63336380D01*
X150175380Y-63336380D01*
X151175380Y-63336380D02*
X151175380Y-62336380D01*
X151842047Y-62336380D02*
X152032523Y-62336380D01*
X152127761Y-62384000D01*
X152223000Y-62479238D01*
X152270619Y-62669714D01*
X152270619Y-63003047D01*
X152223000Y-63193523D01*
X152127761Y-63288761D01*
X152032523Y-63336380D01*
X151842047Y-63336380D01*
X151746809Y-63288761D01*
X151651571Y-63193523D01*
X151603952Y-63003047D01*
X151603952Y-62669714D01*
X151651571Y-62479238D01*
X151746809Y-62384000D01*
X151842047Y-62336380D01*
X140246809Y-68334000D02*
X140151571Y-68286380D01*
X140008714Y-68286380D01*
X139865857Y-68334000D01*
X139770619Y-68429238D01*
X139723000Y-68524476D01*
X139675380Y-68714952D01*
X139675380Y-68857809D01*
X139723000Y-69048285D01*
X139770619Y-69143523D01*
X139865857Y-69238761D01*
X140008714Y-69286380D01*
X140103952Y-69286380D01*
X140246809Y-69238761D01*
X140294428Y-69191142D01*
X140294428Y-68857809D01*
X140103952Y-68857809D01*
X140723000Y-69286380D02*
X140723000Y-68286380D01*
X141389666Y-68286380D02*
X141580142Y-68286380D01*
X141675380Y-68334000D01*
X141770619Y-68429238D01*
X141818238Y-68619714D01*
X141818238Y-68953047D01*
X141770619Y-69143523D01*
X141675380Y-69238761D01*
X141580142Y-69286380D01*
X141389666Y-69286380D01*
X141294428Y-69238761D01*
X141199190Y-69143523D01*
X141151571Y-68953047D01*
X141151571Y-68619714D01*
X141199190Y-68429238D01*
X141294428Y-68334000D01*
X141389666Y-68286380D01*
X142199190Y-68381619D02*
X142246809Y-68334000D01*
X142342047Y-68286380D01*
X142580142Y-68286380D01*
X142675380Y-68334000D01*
X142723000Y-68381619D01*
X142770619Y-68476857D01*
X142770619Y-68572095D01*
X142723000Y-68714952D01*
X142151571Y-69286380D01*
X142770619Y-69286380D01*
X149699189Y-72286380D02*
X150032523Y-73286380D01*
X150365856Y-72286380D01*
X150699189Y-73286380D02*
X150699189Y-72286380D01*
X150937284Y-72286380D01*
X151080142Y-72334000D01*
X151175380Y-72429238D01*
X151222999Y-72524476D01*
X151270618Y-72714952D01*
X151270618Y-72857809D01*
X151222999Y-73048285D01*
X151175380Y-73143523D01*
X151080142Y-73238761D01*
X150937284Y-73286380D01*
X150699189Y-73286380D01*
X151699189Y-73286380D02*
X151699189Y-72286380D01*
X151937284Y-72286380D01*
X152080142Y-72334000D01*
X152175380Y-72429238D01*
X152222999Y-72524476D01*
X152270618Y-72714952D01*
X152270618Y-72857809D01*
X152222999Y-73048285D01*
X152175380Y-73143523D01*
X152080142Y-73238761D01*
X151937284Y-73286380D01*
X151699189Y-73286380D01*
X140246809Y-64384000D02*
X140151571Y-64336380D01*
X140008714Y-64336380D01*
X139865857Y-64384000D01*
X139770619Y-64479238D01*
X139723000Y-64574476D01*
X139675380Y-64764952D01*
X139675380Y-64907809D01*
X139723000Y-65098285D01*
X139770619Y-65193523D01*
X139865857Y-65288761D01*
X140008714Y-65336380D01*
X140103952Y-65336380D01*
X140246809Y-65288761D01*
X140294428Y-65241142D01*
X140294428Y-64907809D01*
X140103952Y-64907809D01*
X140723000Y-65336380D02*
X140723000Y-64336380D01*
X141389666Y-64336380D02*
X141580142Y-64336380D01*
X141675380Y-64384000D01*
X141770619Y-64479238D01*
X141818238Y-64669714D01*
X141818238Y-65003047D01*
X141770619Y-65193523D01*
X141675380Y-65288761D01*
X141580142Y-65336380D01*
X141389666Y-65336380D01*
X141294428Y-65288761D01*
X141199190Y-65193523D01*
X141151571Y-65003047D01*
X141151571Y-64669714D01*
X141199190Y-64479238D01*
X141294428Y-64384000D01*
X141389666Y-64336380D01*
X142770619Y-65336380D02*
X142199190Y-65336380D01*
X142484904Y-65336380D02*
X142484904Y-64336380D01*
X142389666Y-64479238D01*
X142294428Y-64574476D01*
X142199190Y-64622095D01*
D12*
X137100000Y-82550000D02*
X137100000Y-85150000D01*
X137100000Y-85150000D02*
X139760000Y-85150000D01*
X139760000Y-82550000D02*
X139760000Y-85150000D01*
X137100000Y-81280000D02*
X137100000Y-79950000D01*
X137100000Y-79950000D02*
X138430000Y-79950000D01*
X137100000Y-82550000D02*
X139760000Y-82550000D01*
X143570000Y-82550000D02*
X143570000Y-85150000D01*
X140910000Y-85150000D02*
X143570000Y-85150000D01*
X140910000Y-82550000D02*
X143570000Y-82550000D01*
X140910000Y-82550000D02*
X140910000Y-85150000D01*
X140910000Y-79950000D02*
X142240000Y-79950000D01*
X140910000Y-81280000D02*
X140910000Y-79950000D01*
X144720000Y-82550000D02*
X147380000Y-82550000D01*
X144720000Y-85150000D02*
X147380000Y-85150000D01*
X144720000Y-82550000D02*
X144720000Y-85150000D01*
X144720000Y-79950000D02*
X146050000Y-79950000D01*
X144720000Y-81280000D02*
X144720000Y-79950000D01*
X147380000Y-82550000D02*
X147380000Y-85150000D01*
X148530000Y-81280000D02*
X148530000Y-79950000D01*
X148530000Y-85150000D02*
X151190000Y-85150000D01*
X148530000Y-82550000D02*
X148530000Y-85150000D01*
X151190000Y-82550000D02*
X151190000Y-85150000D01*
X148530000Y-82550000D02*
X151190000Y-82550000D01*
X148530000Y-79950000D02*
X149860000Y-79950000D01*
X136523000Y-76634000D02*
X136523000Y-61634000D01*
X155323000Y-61634000D02*
X155323000Y-76634000D01*
X136523000Y-61634000D02*
X155323000Y-61634000D01*
X155323000Y-76634000D02*
X136523000Y-76634000D01*
D13*
X154119000Y-79960000D02*
X153230000Y-79960000D01*
X154119000Y-81230000D02*
X153230000Y-81230000D01*
X154119000Y-81230000D02*
G75*
G03*
X154119000Y-79960000I0J635000D01*
G01*
%LPC*%
D14*
X138430000Y-81280000D03*
X138430000Y-83820000D03*
X142240000Y-81280000D03*
X142240000Y-83820000D03*
X146050000Y-81280000D03*
X146050000Y-83820000D03*
X149860000Y-81280000D03*
X149860000Y-83820000D03*
D15*
X138123000Y-62834000D03*
X138123000Y-64834000D03*
X138123000Y-68834000D03*
X138123000Y-74834000D03*
X153723000Y-74834000D03*
X153723000Y-72834000D03*
X153723000Y-70834000D03*
X153723000Y-66834000D03*
X153723000Y-64834000D03*
X153723000Y-62834000D03*
D16*
X152595000Y-81230000D03*
X152595000Y-79960000D03*
X152595000Y-83770000D03*
X152595000Y-82500000D03*
X152595000Y-85040000D03*
D17*
X153750000Y-80595000D03*
X153750000Y-81865000D03*
X153750000Y-83135000D03*
X153750000Y-84405000D03*
M02*
