G04 #@! TF.GenerationSoftware,KiCad,Pcbnew,(6.0.7)*
G04 #@! TF.CreationDate,2022-08-30T17:39:21-06:00*
G04 #@! TF.ProjectId,malenki-1616-3A,6d616c65-6e6b-4692-9d31-3631362d3341,rev?*
G04 #@! TF.SameCoordinates,Original*
G04 #@! TF.FileFunction,Soldermask,Bot*
G04 #@! TF.FilePolarity,Negative*
%FSLAX46Y46*%
G04 Gerber Fmt 4.6, Leading zero omitted, Abs format (unit mm)*
G04 Created by KiCad (PCBNEW (6.0.7)) date 2022-08-30 17:39:21*
%MOMM*%
%LPD*%
G01*
G04 APERTURE LIST*
G04 Aperture macros list*
%AMRoundRect*
0 Rectangle with rounded corners*
0 $1 Rounding radius*
0 $2 $3 $4 $5 $6 $7 $8 $9 X,Y pos of 4 corners*
0 Add a 4 corners polygon primitive as box body*
4,1,4,$2,$3,$4,$5,$6,$7,$8,$9,$2,$3,0*
0 Add four circle primitives for the rounded corners*
1,1,$1+$1,$2,$3*
1,1,$1+$1,$4,$5*
1,1,$1+$1,$6,$7*
1,1,$1+$1,$8,$9*
0 Add four rect primitives between the rounded corners*
20,1,$1+$1,$2,$3,$4,$5,0*
20,1,$1+$1,$4,$5,$6,$7,0*
20,1,$1+$1,$6,$7,$8,$9,0*
20,1,$1+$1,$8,$9,$2,$3,0*%
%AMFreePoly0*
4,1,14,0.385355,0.085355,0.400000,0.050000,0.400000,0.000711,0.385355,-0.034644,0.334644,-0.085355,0.299289,-0.100000,-0.350000,-0.100000,-0.385355,-0.085355,-0.400000,-0.050000,-0.400000,0.050000,-0.385355,0.085355,-0.350000,0.100000,0.350000,0.100000,0.385355,0.085355,0.385355,0.085355,$1*%
%AMFreePoly1*
4,1,14,0.334644,0.085355,0.385355,0.034644,0.400000,-0.000711,0.400000,-0.050000,0.385355,-0.085355,0.350000,-0.100000,-0.350000,-0.100000,-0.385355,-0.085355,-0.400000,-0.050000,-0.400000,0.050000,-0.385355,0.085355,-0.350000,0.100000,0.299289,0.100000,0.334644,0.085355,0.334644,0.085355,$1*%
%AMFreePoly2*
4,1,14,0.085355,0.385355,0.100000,0.350000,0.100000,-0.350000,0.085355,-0.385355,0.050000,-0.400000,0.000711,-0.400000,-0.034644,-0.385355,-0.085355,-0.334644,-0.100000,-0.299289,-0.100000,0.350000,-0.085355,0.385355,-0.050000,0.400000,0.050000,0.400000,0.085355,0.385355,0.085355,0.385355,$1*%
%AMFreePoly3*
4,1,14,0.085355,0.385355,0.100000,0.350000,0.100000,-0.299289,0.085355,-0.334644,0.034644,-0.385355,-0.000711,-0.400000,-0.050000,-0.400000,-0.085355,-0.385355,-0.100000,-0.350000,-0.100000,0.350000,-0.085355,0.385355,-0.050000,0.400000,0.050000,0.400000,0.085355,0.385355,0.085355,0.385355,$1*%
%AMFreePoly4*
4,1,14,0.385355,0.085355,0.400000,0.050000,0.400000,-0.050000,0.385355,-0.085355,0.350000,-0.100000,-0.350000,-0.100000,-0.385355,-0.085355,-0.400000,-0.050000,-0.400000,-0.000711,-0.385355,0.034644,-0.334644,0.085355,-0.299289,0.100000,0.350000,0.100000,0.385355,0.085355,0.385355,0.085355,$1*%
%AMFreePoly5*
4,1,14,0.385355,0.085355,0.400000,0.050000,0.400000,-0.050000,0.385355,-0.085355,0.350000,-0.100000,-0.299289,-0.100000,-0.334644,-0.085355,-0.385355,-0.034644,-0.400000,0.000711,-0.400000,0.050000,-0.385355,0.085355,-0.350000,0.100000,0.350000,0.100000,0.385355,0.085355,0.385355,0.085355,$1*%
%AMFreePoly6*
4,1,14,0.034644,0.385355,0.085355,0.334644,0.100000,0.299289,0.100000,-0.350000,0.085355,-0.385355,0.050000,-0.400000,-0.050000,-0.400000,-0.085355,-0.385355,-0.100000,-0.350000,-0.100000,0.350000,-0.085355,0.385355,-0.050000,0.400000,-0.000711,0.400000,0.034644,0.385355,0.034644,0.385355,$1*%
%AMFreePoly7*
4,1,14,0.085355,0.385355,0.100000,0.350000,0.100000,-0.350000,0.085355,-0.385355,0.050000,-0.400000,-0.050000,-0.400000,-0.085355,-0.385355,-0.100000,-0.350000,-0.100000,0.299289,-0.085355,0.334644,-0.034644,0.385355,0.000711,0.400000,0.050000,0.400000,0.085355,0.385355,0.085355,0.385355,$1*%
G04 Aperture macros list end*
%ADD10RoundRect,0.225000X0.250000X-0.225000X0.250000X0.225000X-0.250000X0.225000X-0.250000X-0.225000X0*%
%ADD11O,2.300000X2.000000*%
%ADD12C,0.700000*%
%ADD13O,1.500000X0.800000*%
%ADD14RoundRect,0.225000X0.225000X0.250000X-0.225000X0.250000X-0.225000X-0.250000X0.225000X-0.250000X0*%
%ADD15RoundRect,0.250000X0.450000X-0.325000X0.450000X0.325000X-0.450000X0.325000X-0.450000X-0.325000X0*%
%ADD16RoundRect,0.200000X-0.275000X0.200000X-0.275000X-0.200000X0.275000X-0.200000X0.275000X0.200000X0*%
%ADD17RoundRect,0.150000X-0.150000X0.587500X-0.150000X-0.587500X0.150000X-0.587500X0.150000X0.587500X0*%
%ADD18FreePoly0,270.000000*%
%ADD19RoundRect,0.050000X-0.050000X0.350000X-0.050000X-0.350000X0.050000X-0.350000X0.050000X0.350000X0*%
%ADD20FreePoly1,270.000000*%
%ADD21FreePoly2,270.000000*%
%ADD22RoundRect,0.050000X-0.350000X0.050000X-0.350000X-0.050000X0.350000X-0.050000X0.350000X0.050000X0*%
%ADD23FreePoly3,270.000000*%
%ADD24FreePoly4,270.000000*%
%ADD25FreePoly5,270.000000*%
%ADD26FreePoly6,270.000000*%
%ADD27FreePoly7,270.000000*%
%ADD28R,1.700000X1.700000*%
%ADD29R,2.500000X1.500000*%
%ADD30RoundRect,0.200000X0.275000X-0.200000X0.275000X0.200000X-0.275000X0.200000X-0.275000X-0.200000X0*%
%ADD31R,0.250000X1.000000*%
%ADD32R,1.600000X0.800000*%
%ADD33RoundRect,0.135000X0.135000X0.185000X-0.135000X0.185000X-0.135000X-0.185000X0.135000X-0.185000X0*%
%ADD34RoundRect,0.135000X-0.135000X-0.185000X0.135000X-0.185000X0.135000X0.185000X-0.135000X0.185000X0*%
G04 APERTURE END LIST*
D10*
X153550000Y-78875000D03*
X153550000Y-77325000D03*
X149400000Y-78625000D03*
X149400000Y-77075000D03*
X138100000Y-76525000D03*
X138100000Y-74975000D03*
D11*
X138430000Y-81280000D03*
X138430000Y-83820000D03*
X142240000Y-81280000D03*
X142240000Y-83820000D03*
X146050000Y-81280000D03*
X146050000Y-83820000D03*
X149860000Y-81280000D03*
X149860000Y-83820000D03*
D12*
X152595000Y-81230000D03*
X152595000Y-79960000D03*
X152595000Y-83770000D03*
X152595000Y-82500000D03*
X152595000Y-85040000D03*
D13*
X153750000Y-84405000D03*
X153750000Y-83135000D03*
X153750000Y-81865000D03*
X153750000Y-80595000D03*
D14*
X139375000Y-78295500D03*
X137825000Y-78295500D03*
X144875000Y-63400000D03*
X143325000Y-63400000D03*
D10*
X143800000Y-78475000D03*
X143800000Y-76925000D03*
D15*
X138327000Y-65442000D03*
X138327000Y-63392000D03*
X153500000Y-65442000D03*
X153500000Y-63392000D03*
D16*
X137950000Y-68575000D03*
X137950000Y-70225000D03*
X151700000Y-63975000D03*
X151700000Y-65625000D03*
D17*
X139450000Y-71062500D03*
X141350000Y-71062500D03*
X140400000Y-72937500D03*
D14*
X141275000Y-69300000D03*
X139725000Y-69300000D03*
D18*
X143472000Y-65050000D03*
D19*
X143872000Y-65050000D03*
X144272000Y-65050000D03*
X144672000Y-65050000D03*
D20*
X145072000Y-65050000D03*
D21*
X145722000Y-65700000D03*
D22*
X145722000Y-66100000D03*
X145722000Y-66500000D03*
X145722000Y-66900000D03*
D23*
X145722000Y-67300000D03*
D24*
X145072000Y-67950000D03*
D19*
X144672000Y-67950000D03*
X144272000Y-67950000D03*
X143872000Y-67950000D03*
D25*
X143472000Y-67950000D03*
D26*
X142822000Y-67300000D03*
D22*
X142822000Y-66900000D03*
X142822000Y-66500000D03*
X142822000Y-66100000D03*
D27*
X142822000Y-65700000D03*
D28*
X144272000Y-66500000D03*
D29*
X153111323Y-71501000D03*
X153111323Y-73501000D03*
D16*
X137750000Y-73275000D03*
X137750000Y-71625000D03*
D30*
X139700000Y-76580500D03*
X139700000Y-74930500D03*
D10*
X147900000Y-78626000D03*
X147900000Y-77076000D03*
D14*
X152425000Y-75350000D03*
X153975000Y-75350000D03*
D31*
X142500000Y-79000000D03*
X142000000Y-79000000D03*
X141500000Y-79000000D03*
X141000000Y-79000000D03*
X141000000Y-76600000D03*
X141500000Y-76600000D03*
X142000000Y-76600000D03*
X142500000Y-76600000D03*
D32*
X141750000Y-77800000D03*
D31*
X146600000Y-78987500D03*
X146100000Y-78987500D03*
X145600000Y-78987500D03*
X145100000Y-78987500D03*
X145100000Y-76587500D03*
X145600000Y-76587500D03*
X146100000Y-76587500D03*
X146600000Y-76587500D03*
D32*
X145850000Y-77787500D03*
D31*
X152200000Y-79000000D03*
X151700000Y-79000000D03*
X151200000Y-79000000D03*
X150700000Y-79000000D03*
X150700000Y-76600000D03*
X151200000Y-76600000D03*
X151700000Y-76600000D03*
X152200000Y-76600000D03*
D32*
X151450000Y-77800000D03*
D33*
X151010000Y-70100000D03*
X149990000Y-70100000D03*
D34*
X149990000Y-72400000D03*
X151010000Y-72400000D03*
D33*
X151010000Y-73500000D03*
X149990000Y-73500000D03*
D34*
X149990000Y-71200000D03*
X151010000Y-71200000D03*
M02*
