M48
; DRILL file {KiCad (6.0.7)} date Tue Aug 30 17:39:48 2022
; FORMAT={-:-/ absolute / metric / decimal}
; #@! TF.CreationDate,2022-08-30T17:39:48-06:00
; #@! TF.GenerationSoftware,Kicad,Pcbnew,(6.0.7)
; #@! TF.FileFunction,MixedPlating,1,2
FMAT,2
METRIC
; #@! TA.AperFunction,Plated,PTH,ViaDrill
T1C0.400
; #@! TA.AperFunction,Plated,PTH,ComponentDrill
T2C1.200
; #@! TA.AperFunction,NonPlated,NPTH,ComponentDrill
T3C0.700
%
G90
G05
T1
X138.621Y-67.2
X139.805Y-64.091
X139.998Y-67.102
X140.815Y-65.914
X141.4Y-68.2
X141.702Y-66.537
X141.796Y-77.787
X142.538Y-72.672
X142.551Y-64.436
X142.6Y-70.7
X142.9Y-78.9
X143.1Y-75.4
X143.172Y-71.9
X143.5Y-73.7
X144.15Y-78.9
X144.272Y-66.328
X145.371Y-72.1
X145.39Y-69.807
X145.5Y-70.8
X145.853Y-68.184
X145.923Y-77.787
X146.3Y-63.599
X146.6Y-75.4
X146.8Y-64.8
X146.8Y-72.799
X146.801Y-68.5
X147.112Y-78.987
X147.9Y-64.8
X148.1Y-72.8
X148.4Y-79.0
X148.6Y-67.7
X148.859Y-71.505
X149.4Y-65.5
X149.4Y-66.7
X149.5Y-63.5
X149.85Y-78.85
X150.7Y-68.4
X151.15Y-75.15
X151.55Y-77.8
X151.6Y-62.5
X153.15Y-76.4
X153.8Y-68.8
X153.9Y-79.35
T2
X138.43Y-81.28
X138.43Y-83.82
X142.24Y-81.28
X142.24Y-83.82
X146.05Y-81.28
X146.05Y-83.82
X149.86Y-81.28
X149.86Y-83.82
T3
X152.595Y-79.96
X152.595Y-81.23
X152.595Y-82.5
X152.595Y-83.77
X152.595Y-85.04
T0
M30
