G04 #@! TF.GenerationSoftware,KiCad,Pcbnew,(6.0.7)*
G04 #@! TF.CreationDate,2022-08-30T17:39:21-06:00*
G04 #@! TF.ProjectId,malenki-1616-3A,6d616c65-6e6b-4692-9d31-3631362d3341,rev?*
G04 #@! TF.SameCoordinates,Original*
G04 #@! TF.FileFunction,Legend,Bot*
G04 #@! TF.FilePolarity,Positive*
%FSLAX46Y46*%
G04 Gerber Fmt 4.6, Leading zero omitted, Abs format (unit mm)*
G04 Created by KiCad (PCBNEW (6.0.7)) date 2022-08-30 17:39:21*
%MOMM*%
%LPD*%
G01*
G04 APERTURE LIST*
G04 Aperture macros list*
%AMRoundRect*
0 Rectangle with rounded corners*
0 $1 Rounding radius*
0 $2 $3 $4 $5 $6 $7 $8 $9 X,Y pos of 4 corners*
0 Add a 4 corners polygon primitive as box body*
4,1,4,$2,$3,$4,$5,$6,$7,$8,$9,$2,$3,0*
0 Add four circle primitives for the rounded corners*
1,1,$1+$1,$2,$3*
1,1,$1+$1,$4,$5*
1,1,$1+$1,$6,$7*
1,1,$1+$1,$8,$9*
0 Add four rect primitives between the rounded corners*
20,1,$1+$1,$2,$3,$4,$5,0*
20,1,$1+$1,$4,$5,$6,$7,0*
20,1,$1+$1,$6,$7,$8,$9,0*
20,1,$1+$1,$8,$9,$2,$3,0*%
%AMFreePoly0*
4,1,14,0.385355,0.085355,0.400000,0.050000,0.400000,0.000711,0.385355,-0.034644,0.334644,-0.085355,0.299289,-0.100000,-0.350000,-0.100000,-0.385355,-0.085355,-0.400000,-0.050000,-0.400000,0.050000,-0.385355,0.085355,-0.350000,0.100000,0.350000,0.100000,0.385355,0.085355,0.385355,0.085355,$1*%
%AMFreePoly1*
4,1,14,0.334644,0.085355,0.385355,0.034644,0.400000,-0.000711,0.400000,-0.050000,0.385355,-0.085355,0.350000,-0.100000,-0.350000,-0.100000,-0.385355,-0.085355,-0.400000,-0.050000,-0.400000,0.050000,-0.385355,0.085355,-0.350000,0.100000,0.299289,0.100000,0.334644,0.085355,0.334644,0.085355,$1*%
%AMFreePoly2*
4,1,14,0.085355,0.385355,0.100000,0.350000,0.100000,-0.350000,0.085355,-0.385355,0.050000,-0.400000,0.000711,-0.400000,-0.034644,-0.385355,-0.085355,-0.334644,-0.100000,-0.299289,-0.100000,0.350000,-0.085355,0.385355,-0.050000,0.400000,0.050000,0.400000,0.085355,0.385355,0.085355,0.385355,$1*%
%AMFreePoly3*
4,1,14,0.085355,0.385355,0.100000,0.350000,0.100000,-0.299289,0.085355,-0.334644,0.034644,-0.385355,-0.000711,-0.400000,-0.050000,-0.400000,-0.085355,-0.385355,-0.100000,-0.350000,-0.100000,0.350000,-0.085355,0.385355,-0.050000,0.400000,0.050000,0.400000,0.085355,0.385355,0.085355,0.385355,$1*%
%AMFreePoly4*
4,1,14,0.385355,0.085355,0.400000,0.050000,0.400000,-0.050000,0.385355,-0.085355,0.350000,-0.100000,-0.350000,-0.100000,-0.385355,-0.085355,-0.400000,-0.050000,-0.400000,-0.000711,-0.385355,0.034644,-0.334644,0.085355,-0.299289,0.100000,0.350000,0.100000,0.385355,0.085355,0.385355,0.085355,$1*%
%AMFreePoly5*
4,1,14,0.385355,0.085355,0.400000,0.050000,0.400000,-0.050000,0.385355,-0.085355,0.350000,-0.100000,-0.299289,-0.100000,-0.334644,-0.085355,-0.385355,-0.034644,-0.400000,0.000711,-0.400000,0.050000,-0.385355,0.085355,-0.350000,0.100000,0.350000,0.100000,0.385355,0.085355,0.385355,0.085355,$1*%
%AMFreePoly6*
4,1,14,0.034644,0.385355,0.085355,0.334644,0.100000,0.299289,0.100000,-0.350000,0.085355,-0.385355,0.050000,-0.400000,-0.050000,-0.400000,-0.085355,-0.385355,-0.100000,-0.350000,-0.100000,0.350000,-0.085355,0.385355,-0.050000,0.400000,-0.000711,0.400000,0.034644,0.385355,0.034644,0.385355,$1*%
%AMFreePoly7*
4,1,14,0.085355,0.385355,0.100000,0.350000,0.100000,-0.350000,0.085355,-0.385355,0.050000,-0.400000,-0.050000,-0.400000,-0.085355,-0.385355,-0.100000,-0.350000,-0.100000,0.299289,-0.085355,0.334644,-0.034644,0.385355,0.000711,0.400000,0.050000,0.400000,0.085355,0.385355,0.085355,0.385355,$1*%
G04 Aperture macros list end*
%ADD10C,0.377000*%
%ADD11C,0.500000*%
%ADD12C,0.150000*%
%ADD13C,0.300000*%
%ADD14C,0.120000*%
%ADD15RoundRect,0.225000X0.250000X-0.225000X0.250000X0.225000X-0.250000X0.225000X-0.250000X-0.225000X0*%
%ADD16O,2.300000X2.000000*%
%ADD17C,0.700000*%
%ADD18O,1.500000X0.800000*%
%ADD19RoundRect,0.225000X0.225000X0.250000X-0.225000X0.250000X-0.225000X-0.250000X0.225000X-0.250000X0*%
%ADD20RoundRect,0.250000X0.450000X-0.325000X0.450000X0.325000X-0.450000X0.325000X-0.450000X-0.325000X0*%
%ADD21RoundRect,0.200000X-0.275000X0.200000X-0.275000X-0.200000X0.275000X-0.200000X0.275000X0.200000X0*%
%ADD22RoundRect,0.150000X-0.150000X0.587500X-0.150000X-0.587500X0.150000X-0.587500X0.150000X0.587500X0*%
%ADD23FreePoly0,270.000000*%
%ADD24RoundRect,0.050000X-0.050000X0.350000X-0.050000X-0.350000X0.050000X-0.350000X0.050000X0.350000X0*%
%ADD25FreePoly1,270.000000*%
%ADD26FreePoly2,270.000000*%
%ADD27RoundRect,0.050000X-0.350000X0.050000X-0.350000X-0.050000X0.350000X-0.050000X0.350000X0.050000X0*%
%ADD28FreePoly3,270.000000*%
%ADD29FreePoly4,270.000000*%
%ADD30FreePoly5,270.000000*%
%ADD31FreePoly6,270.000000*%
%ADD32FreePoly7,270.000000*%
%ADD33R,1.700000X1.700000*%
%ADD34R,2.500000X1.500000*%
%ADD35RoundRect,0.200000X0.275000X-0.200000X0.275000X0.200000X-0.275000X0.200000X-0.275000X-0.200000X0*%
%ADD36R,0.250000X1.000000*%
%ADD37R,1.600000X0.800000*%
%ADD38RoundRect,0.135000X0.135000X0.185000X-0.135000X0.185000X-0.135000X-0.185000X0.135000X-0.185000X0*%
%ADD39RoundRect,0.135000X-0.135000X-0.185000X0.135000X-0.185000X0.135000X0.185000X-0.135000X0.185000X0*%
G04 APERTURE END LIST*
D10*
X143288500Y-64200000D02*
G75*
G03*
X143288500Y-64200000I-188500J0D01*
G01*
D11*
X147527000Y-79600000D02*
G75*
G03*
X147527000Y-79600000I-127000J0D01*
G01*
X151527000Y-79600000D02*
G75*
G03*
X151527000Y-79600000I-127000J0D01*
G01*
X143427000Y-79600000D02*
G75*
G03*
X143427000Y-79600000I-127000J0D01*
G01*
D12*
X154564404Y-68152380D02*
X154564404Y-67152380D01*
X154231071Y-67866666D01*
X153897738Y-67152380D01*
X153897738Y-68152380D01*
X153421547Y-68152380D02*
X153421547Y-67152380D01*
X152850119Y-68152380D01*
X152850119Y-67152380D01*
X152421547Y-67247619D02*
X152373928Y-67200000D01*
X152278690Y-67152380D01*
X152040595Y-67152380D01*
X151945357Y-67200000D01*
X151897738Y-67247619D01*
X151850119Y-67342857D01*
X151850119Y-67438095D01*
X151897738Y-67580952D01*
X152469166Y-68152380D01*
X151850119Y-68152380D01*
X151231071Y-67152380D02*
X151135833Y-67152380D01*
X151040595Y-67200000D01*
X150992976Y-67247619D01*
X150945357Y-67342857D01*
X150897738Y-67533333D01*
X150897738Y-67771428D01*
X150945357Y-67961904D01*
X150992976Y-68057142D01*
X151040595Y-68104761D01*
X151135833Y-68152380D01*
X151231071Y-68152380D01*
X151326309Y-68104761D01*
X151373928Y-68057142D01*
X151421547Y-67961904D01*
X151469166Y-67771428D01*
X151469166Y-67533333D01*
X151421547Y-67342857D01*
X151373928Y-67247619D01*
X151326309Y-67200000D01*
X151231071Y-67152380D01*
X150516785Y-67247619D02*
X150469166Y-67200000D01*
X150373928Y-67152380D01*
X150135833Y-67152380D01*
X150040595Y-67200000D01*
X149992976Y-67247619D01*
X149945357Y-67342857D01*
X149945357Y-67438095D01*
X149992976Y-67580952D01*
X150564404Y-68152380D01*
X149945357Y-68152380D01*
X149564404Y-67247619D02*
X149516785Y-67200000D01*
X149421547Y-67152380D01*
X149183452Y-67152380D01*
X149088214Y-67200000D01*
X149040595Y-67247619D01*
X148992976Y-67342857D01*
X148992976Y-67438095D01*
X149040595Y-67580952D01*
X149612023Y-68152380D01*
X148992976Y-68152380D01*
X137985452Y-79382928D02*
X137223547Y-79382928D01*
X137604500Y-79763880D02*
X137604500Y-79001976D01*
X137921952Y-85415428D02*
X137160047Y-85415428D01*
X139699952Y-85415428D02*
X138938047Y-85415428D01*
X139445952Y-79382928D02*
X138684047Y-79382928D01*
X139065000Y-79763880D02*
X139065000Y-79001976D01*
X140028571Y-85071428D02*
X140028571Y-84309523D01*
X139647619Y-83833333D02*
X140647619Y-83833333D01*
X140647619Y-83452380D01*
X140600000Y-83357142D01*
X140552380Y-83309523D01*
X140457142Y-83261904D01*
X140314285Y-83261904D01*
X140219047Y-83309523D01*
X140171428Y-83357142D01*
X140123809Y-83452380D01*
X140123809Y-83833333D01*
X140647619Y-82928571D02*
X139647619Y-82690476D01*
X140361904Y-82500000D01*
X139647619Y-82309523D01*
X140647619Y-82071428D01*
X139647619Y-81119047D02*
X140123809Y-81452380D01*
X139647619Y-81690476D02*
X140647619Y-81690476D01*
X140647619Y-81309523D01*
X140600000Y-81214285D01*
X140552380Y-81166666D01*
X140457142Y-81119047D01*
X140314285Y-81119047D01*
X140219047Y-81166666D01*
X140171428Y-81214285D01*
X140123809Y-81309523D01*
X140123809Y-81690476D01*
X140028571Y-80690476D02*
X140028571Y-79928571D01*
X139647619Y-80309523D02*
X140409523Y-80309523D01*
D13*
X145488333Y-75683333D02*
X146154999Y-75683333D01*
X146154999Y-74283333D01*
X149321666Y-75783333D02*
X149788333Y-75116666D01*
X150121666Y-75783333D02*
X150121666Y-74383333D01*
X149588333Y-74383333D01*
X149455000Y-74450000D01*
X149388333Y-74516666D01*
X149321666Y-74650000D01*
X149321666Y-74850000D01*
X149388333Y-74983333D01*
X149455000Y-75050000D01*
X149588333Y-75116666D01*
X150121666Y-75116666D01*
X142355000Y-74333333D02*
X142021666Y-75733333D01*
X141755000Y-74733333D01*
X141488333Y-75733333D01*
X141155000Y-74333333D01*
D14*
X153040000Y-78240580D02*
X153040000Y-77959420D01*
X154060000Y-78240580D02*
X154060000Y-77959420D01*
X148890000Y-77990580D02*
X148890000Y-77709420D01*
X149910000Y-77990580D02*
X149910000Y-77709420D01*
X137590000Y-75890580D02*
X137590000Y-75609420D01*
X138610000Y-75890580D02*
X138610000Y-75609420D01*
X138740580Y-77785500D02*
X138459420Y-77785500D01*
X138740580Y-78805500D02*
X138459420Y-78805500D01*
X144240580Y-62890000D02*
X143959420Y-62890000D01*
X144240580Y-63910000D02*
X143959420Y-63910000D01*
X143290000Y-77840580D02*
X143290000Y-77559420D01*
X144310000Y-77840580D02*
X144310000Y-77559420D01*
X137367000Y-66277000D02*
X137367000Y-63417000D01*
X139287000Y-66277000D02*
X137367000Y-66277000D01*
X139287000Y-63417000D02*
X139287000Y-66277000D01*
X154460000Y-66277000D02*
X152540000Y-66277000D01*
X154460000Y-63417000D02*
X154460000Y-66277000D01*
X152540000Y-66277000D02*
X152540000Y-63417000D01*
X138472500Y-69162742D02*
X138472500Y-69637258D01*
X137427500Y-69162742D02*
X137427500Y-69637258D01*
X152222500Y-64562742D02*
X152222500Y-65037258D01*
X151177500Y-64562742D02*
X151177500Y-65037258D01*
X138840000Y-72000000D02*
X138840000Y-70325000D01*
X141960000Y-72000000D02*
X141960000Y-72650000D01*
X141960000Y-72000000D02*
X141960000Y-71350000D01*
X138840000Y-72000000D02*
X138840000Y-72650000D01*
X140640580Y-68790000D02*
X140359420Y-68790000D01*
X140640580Y-69810000D02*
X140359420Y-69810000D01*
X142662000Y-68110000D02*
X143112000Y-68110000D01*
X145882000Y-65340000D02*
X145882000Y-64890000D01*
X145882000Y-64890000D02*
X145432000Y-64890000D01*
X142662000Y-65340000D02*
X142662000Y-64890000D01*
X142662000Y-67660000D02*
X142662000Y-68110000D01*
X145882000Y-67660000D02*
X145882000Y-68110000D01*
X145882000Y-68110000D02*
X145432000Y-68110000D01*
X138272500Y-72212742D02*
X138272500Y-72687258D01*
X137227500Y-72212742D02*
X137227500Y-72687258D01*
X140222500Y-75992758D02*
X140222500Y-75518242D01*
X139177500Y-75992758D02*
X139177500Y-75518242D01*
X148410000Y-77991580D02*
X148410000Y-77710420D01*
X147390000Y-77991580D02*
X147390000Y-77710420D01*
X153340580Y-74840000D02*
X153059420Y-74840000D01*
X153340580Y-75860000D02*
X153059420Y-75860000D01*
X142870000Y-79300000D02*
X142870000Y-77300000D01*
X140630000Y-77300000D02*
X140630000Y-78300000D01*
X144730000Y-77287500D02*
X144730000Y-78287500D01*
X146970000Y-79287500D02*
X146970000Y-77287500D01*
X150330000Y-77300000D02*
X150330000Y-78300000D01*
X152570000Y-79300000D02*
X152570000Y-77300000D01*
X150653641Y-70480000D02*
X150346359Y-70480000D01*
X150653641Y-69720000D02*
X150346359Y-69720000D01*
X150346359Y-72020000D02*
X150653641Y-72020000D01*
X150346359Y-72780000D02*
X150653641Y-72780000D01*
X150653641Y-73120000D02*
X150346359Y-73120000D01*
X150653641Y-73880000D02*
X150346359Y-73880000D01*
X150346359Y-70820000D02*
X150653641Y-70820000D01*
X150346359Y-71580000D02*
X150653641Y-71580000D01*
%LPC*%
D15*
X153550000Y-78875000D03*
X153550000Y-77325000D03*
X149400000Y-78625000D03*
X149400000Y-77075000D03*
X138100000Y-76525000D03*
X138100000Y-74975000D03*
D16*
X138430000Y-81280000D03*
X138430000Y-83820000D03*
X142240000Y-81280000D03*
X142240000Y-83820000D03*
X146050000Y-81280000D03*
X146050000Y-83820000D03*
X149860000Y-81280000D03*
X149860000Y-83820000D03*
D17*
X152595000Y-81230000D03*
X152595000Y-79960000D03*
X152595000Y-83770000D03*
X152595000Y-82500000D03*
X152595000Y-85040000D03*
D18*
X153750000Y-84405000D03*
X153750000Y-83135000D03*
X153750000Y-81865000D03*
X153750000Y-80595000D03*
D19*
X139375000Y-78295500D03*
X137825000Y-78295500D03*
X144875000Y-63400000D03*
X143325000Y-63400000D03*
D15*
X143800000Y-78475000D03*
X143800000Y-76925000D03*
D20*
X138327000Y-65442000D03*
X138327000Y-63392000D03*
X153500000Y-65442000D03*
X153500000Y-63392000D03*
D21*
X137950000Y-68575000D03*
X137950000Y-70225000D03*
X151700000Y-63975000D03*
X151700000Y-65625000D03*
D22*
X139450000Y-71062500D03*
X141350000Y-71062500D03*
X140400000Y-72937500D03*
D19*
X141275000Y-69300000D03*
X139725000Y-69300000D03*
D23*
X143472000Y-65050000D03*
D24*
X143872000Y-65050000D03*
X144272000Y-65050000D03*
X144672000Y-65050000D03*
D25*
X145072000Y-65050000D03*
D26*
X145722000Y-65700000D03*
D27*
X145722000Y-66100000D03*
X145722000Y-66500000D03*
X145722000Y-66900000D03*
D28*
X145722000Y-67300000D03*
D29*
X145072000Y-67950000D03*
D24*
X144672000Y-67950000D03*
X144272000Y-67950000D03*
X143872000Y-67950000D03*
D30*
X143472000Y-67950000D03*
D31*
X142822000Y-67300000D03*
D27*
X142822000Y-66900000D03*
X142822000Y-66500000D03*
X142822000Y-66100000D03*
D32*
X142822000Y-65700000D03*
D33*
X144272000Y-66500000D03*
D34*
X153111323Y-71501000D03*
X153111323Y-73501000D03*
D21*
X137750000Y-73275000D03*
X137750000Y-71625000D03*
D35*
X139700000Y-76580500D03*
X139700000Y-74930500D03*
D15*
X147900000Y-78626000D03*
X147900000Y-77076000D03*
D19*
X152425000Y-75350000D03*
X153975000Y-75350000D03*
D36*
X142500000Y-79000000D03*
X142000000Y-79000000D03*
X141500000Y-79000000D03*
X141000000Y-79000000D03*
X141000000Y-76600000D03*
X141500000Y-76600000D03*
X142000000Y-76600000D03*
X142500000Y-76600000D03*
D37*
X141750000Y-77800000D03*
D36*
X146600000Y-78987500D03*
X146100000Y-78987500D03*
X145600000Y-78987500D03*
X145100000Y-78987500D03*
X145100000Y-76587500D03*
X145600000Y-76587500D03*
X146100000Y-76587500D03*
X146600000Y-76587500D03*
D37*
X145850000Y-77787500D03*
D36*
X152200000Y-79000000D03*
X151700000Y-79000000D03*
X151200000Y-79000000D03*
X150700000Y-79000000D03*
X150700000Y-76600000D03*
X151200000Y-76600000D03*
X151700000Y-76600000D03*
X152200000Y-76600000D03*
D37*
X151450000Y-77800000D03*
D38*
X151010000Y-70100000D03*
X149990000Y-70100000D03*
D39*
X149990000Y-72400000D03*
X151010000Y-72400000D03*
D38*
X151010000Y-73500000D03*
X149990000Y-73500000D03*
D39*
X149990000Y-71200000D03*
X151010000Y-71200000D03*
M02*
